<svg width="47" height="55" viewBox="0 0 47 55" fill="none" xmlns="http://www.w3.org/2000/svg">
<path d="M16.0596 26.0058L21.8317 23.5561L27.6023 21.1069L39.9108 50.1011L32.9965 49.858L28.3675 55L16.0596 26.0058Z" fill="#E31836"/>
<path d="M18.6176 21.0989L24.431 23.4469L30.245 25.7954L18.4463 55L13.7273 49.94L6.81836 50.3041L18.6176 21.0989Z" fill="#E31836"/>
<path d="M45.659 23.3649C45.659 24.499 43.5964 25.458 43.4261 26.5439C43.2505 27.6592 44.9131 29.2056 44.5725 30.2562C44.225 31.3249 41.967 31.5991 41.4642 32.5859C40.955 33.584 42.0553 35.5716 41.4005 36.4706C40.7435 37.3739 38.5117 36.9375 37.7246 37.7257C36.9359 38.5134 37.3717 40.7441 36.4695 41.4016C35.57 42.0554 33.5829 40.9545 32.5853 41.4637C31.598 41.9676 31.3243 44.2245 30.254 44.572C29.205 44.9126 27.6586 43.25 26.5438 43.4256C25.4569 43.5959 24.4979 45.6584 23.3643 45.6584C22.2308 45.6584 21.2707 43.5959 20.1864 43.4256C19.0716 43.25 17.5236 44.9126 16.4736 44.5715C15.4048 44.2245 15.1317 41.9676 14.1449 41.4632C13.1468 40.954 11.1598 42.0549 10.2607 41.4011C9.35796 40.743 9.79326 38.5123 9.00454 37.7241C8.21688 36.9365 5.98512 37.3734 5.32866 36.4696C4.6738 35.5705 5.77523 33.5835 5.26602 32.5854C4.76055 31.5985 2.50363 31.3244 2.15665 30.2562C1.81557 29.2051 3.47868 27.6592 3.30359 26.5439C3.13224 25.4574 1.07129 24.4984 1.07129 23.3649C1.07129 22.2313 3.13224 21.2718 3.30359 20.1859C3.47868 19.0716 1.8145 17.5247 2.15665 16.4752C2.50255 15.4065 4.75948 15.1318 5.26494 14.1444C5.77309 13.1469 4.67273 11.1592 5.32652 10.2607C5.98405 9.35691 8.21581 9.7933 9.00346 9.00458C9.79218 8.2164 9.35581 5.98569 10.2597 5.32816C11.1587 4.67383 13.1457 5.7742 14.1438 5.26499C15.1306 4.76113 15.4048 2.50418 16.4736 2.15667C17.5236 1.81612 19.0705 3.47873 20.1864 3.30363C21.2707 3.13229 22.2308 1.07079 23.3643 1.07079C24.4989 1.07079 25.4579 3.13229 26.5449 3.30363C27.6597 3.47873 29.205 1.81612 30.2561 2.15775C31.3249 2.50472 31.599 4.76165 32.5853 5.26551C33.584 5.77473 35.5721 4.67437 36.4706 5.32923C37.3739 5.98676 36.938 8.21693 37.7257 9.00565C38.5128 9.7933 40.7446 9.35691 41.4016 10.2607C42.0569 11.1592 40.9561 13.1468 41.4653 14.1449C41.9691 15.1318 44.225 15.4054 44.5725 16.4741C44.9131 17.5242 43.2505 19.0716 43.4261 20.1859C43.5964 21.2718 45.659 22.2313 45.659 23.3649Z" fill="white"/>
<path d="M20.0141 42.342C20.1287 42.342 20.2417 42.3506 20.352 42.3677C21.2221 42.5048 21.8738 43.1821 22.4478 43.7808C22.716 44.0592 23.1594 44.5207 23.3639 44.585C23.5685 44.5207 24.0113 44.0597 24.2785 43.7813C24.8541 43.1827 25.5058 42.5048 26.3775 42.3677C26.4872 42.3506 26.6002 42.342 26.7148 42.342C27.481 42.342 28.2092 42.7318 28.8518 43.0756C29.203 43.2635 29.7331 43.5473 29.9473 43.5473C30.0748 43.46 30.3623 42.8673 30.5336 42.5128C30.8967 41.7632 31.3079 40.9134 32.0982 40.5102C32.4361 40.3373 32.8243 40.2537 33.2853 40.2537C33.7453 40.2537 34.209 40.3362 34.6577 40.416C35.0138 40.4797 35.3822 40.545 35.651 40.545C35.8052 40.545 35.8598 40.5231 35.8603 40.5231C35.9497 40.4015 36.0386 39.7547 36.0922 39.3681C36.2062 38.5392 36.3353 37.5995 36.9671 36.9682C37.5973 36.3374 38.5365 36.2084 39.3659 36.0943C39.7525 36.0413 40.3993 35.9524 40.5487 35.8234C40.5969 35.6799 40.4834 35.0406 40.4154 34.6588C40.2692 33.8331 40.1027 32.8971 40.5102 32.0993C40.9129 31.309 41.7631 30.8978 42.5133 30.5347C42.8672 30.3634 43.46 30.0769 43.5612 29.9061C43.5601 29.7583 43.2571 29.1918 43.0755 28.8529C42.6782 28.1102 42.2279 27.2685 42.3682 26.3775C42.5042 25.5068 43.1826 24.8557 43.7807 24.2812C44.0672 24.0054 44.548 23.5439 44.5887 23.3479C44.5475 23.1867 44.0677 22.7252 43.7807 22.4499C43.1826 21.8749 42.5042 21.2232 42.3682 20.352C42.2274 19.4621 42.6782 18.6204 43.0755 17.8777C43.2571 17.5393 43.5601 16.9723 43.5473 16.7774C43.46 16.6542 42.8678 16.3672 42.5139 16.1964C41.7648 15.8333 40.915 15.4221 40.5113 14.6323C40.1038 13.834 40.2703 12.898 40.417 12.0729C40.4845 11.6911 40.598 11.0523 40.523 10.8708C40.4004 10.7787 39.7531 10.6898 39.3659 10.6368C38.5376 10.5227 37.5984 10.3937 36.9682 9.76293C36.3374 9.13109 36.2084 8.19243 36.0943 7.36409C36.0424 6.98713 35.9562 6.36334 35.8325 6.19307C35.8212 6.19575 35.7634 6.18557 35.6515 6.18557C35.3827 6.18557 35.0304 6.24767 34.6582 6.31407C34.2101 6.39332 33.7464 6.47578 33.2864 6.47578C32.8248 6.47578 32.4366 6.39226 32.0988 6.21984C31.3079 5.81557 30.8972 4.96634 30.5347 4.21671C30.3634 3.86277 30.0764 3.27002 29.9061 3.16829C29.7331 3.18221 29.2025 3.46654 28.8512 3.65448C28.1776 4.01484 27.481 4.38751 26.7159 4.38751C26.6013 4.38751 26.4883 4.37895 26.378 4.36181C25.5068 4.2242 24.8552 3.54684 24.2806 2.94875C24.0054 2.66174 23.5433 2.18145 23.3473 2.14075C23.1851 2.18198 22.7235 2.66229 22.4472 2.9493C21.8732 3.54686 21.2221 4.2242 20.3531 4.36181C19.4921 4.49621 18.6155 4.04911 17.8761 3.65341C17.5254 3.46547 16.9947 3.18167 16.7795 3.18167C16.6526 3.26895 16.3661 3.8617 16.1947 4.21563C15.8317 4.96527 15.4205 5.81556 14.6307 6.21929C14.2923 6.39171 13.9035 6.47578 13.4425 6.47578C12.9831 6.47578 12.5194 6.39333 12.0707 6.31355C11.6986 6.24715 11.3468 6.18502 11.078 6.18502C10.9232 6.18502 10.8681 6.20698 10.8675 6.20698C10.7776 6.32853 10.6882 6.97589 10.6352 7.36249C10.5211 8.19137 10.3915 9.13109 9.76022 9.76186C9.12999 10.3932 8.19028 10.5222 7.3614 10.6368C6.97427 10.6898 6.32691 10.7792 6.17752 10.9083C6.1304 11.0512 6.24391 11.6906 6.31191 12.0718C6.45862 12.8975 6.62513 13.8329 6.21873 14.6307C5.81392 15.4216 4.96418 15.8333 4.21454 16.1964C3.86007 16.3677 3.2684 16.6542 3.1672 16.8245C3.16827 16.9739 3.47186 17.5404 3.65284 17.8793C4.05068 18.6209 4.501 19.4616 4.36125 20.3515C4.22363 21.2232 3.54631 21.8748 2.9482 22.4494C2.66174 22.7251 2.18195 23.1862 2.14019 23.3822C2.18195 23.5439 2.66174 24.0049 2.9482 24.2806C3.54631 24.8552 4.22363 25.5063 4.36125 26.3769C4.501 27.269 4.0507 28.1102 3.65339 28.8523C3.47187 29.1913 3.16825 29.7583 3.18111 29.9527C3.26838 30.0764 3.8606 30.3634 4.21507 30.5342C4.9647 30.8972 5.815 31.3085 6.21873 32.0977C6.62674 32.8966 6.46022 33.8326 6.3135 34.6583C6.2455 35.04 6.13198 35.6788 6.20641 35.8603C6.32903 35.9514 6.97586 36.0403 7.363 36.0933C8.19134 36.2073 9.13053 36.3364 9.76129 36.9671C10.3926 37.5979 10.5222 38.5381 10.6368 39.367C10.6882 39.7429 10.7749 40.3656 10.8975 40.537C10.9066 40.5338 10.9655 40.5445 11.078 40.5445C11.3468 40.5445 11.7152 40.4786 12.0712 40.4154C12.5199 40.3357 12.9842 40.2532 13.4441 40.2532C13.9046 40.2532 14.2934 40.3373 14.6312 40.5097C15.4216 40.9134 15.8328 41.7637 16.1958 42.5133C16.3666 42.8673 16.6526 43.4595 16.8228 43.5612C16.9952 43.5473 17.5264 43.263 17.8772 43.075C18.5518 42.7147 19.249 42.342 20.0141 42.342ZM23.3639 46.7295C22.3112 46.7295 21.5637 45.951 20.9041 45.2645C20.6401 44.9903 20.1999 44.532 20.0131 44.4827C19.7855 44.4838 19.2666 44.7612 18.8875 44.9641C18.2214 45.3202 17.5323 45.6891 16.78 45.6891C16.5583 45.6891 16.3441 45.6559 16.1423 45.5906C15.1479 45.2677 14.6805 44.2996 14.2671 43.4461C14.1001 43.0997 13.819 42.5192 13.654 42.4148C13.6524 42.4143 13.6299 42.395 13.4441 42.395C13.1732 42.395 12.8037 42.4609 12.4466 42.524C11.9989 42.6038 11.5358 42.6863 11.078 42.6863C10.4916 42.6863 10.0178 42.5492 9.63064 42.2676C8.79052 41.655 8.64381 40.5948 8.51477 39.6599C8.46176 39.2744 8.37233 38.6292 8.2449 38.4792C8.09925 38.3566 7.45564 38.2683 7.07119 38.2153C6.13468 38.0862 5.07342 37.9406 4.46193 37.0994C3.85259 36.263 4.03945 35.2114 4.20437 34.2834C4.27291 33.8979 4.38803 33.2521 4.31039 33.0701C4.2108 32.9116 3.6293 32.6305 3.28179 32.4623C2.42881 32.0495 1.46071 31.5816 1.13784 30.5872C0.819778 29.6068 1.32149 28.6687 1.76485 27.8414C1.95226 27.4918 2.26548 26.9065 2.24514 26.7084C2.19802 26.5301 1.73862 26.0883 1.46447 25.8249C0.778018 25.1652 0 24.4172 0 23.365C0 22.3129 0.778004 21.5648 1.46392 20.9052C1.73861 20.6417 2.19749 20.2 2.24676 20.0131C2.26496 19.823 1.95172 19.2394 1.76485 18.8902C1.32149 18.0624 0.818694 17.1238 1.13836 16.1434C1.45963 15.1507 2.42721 14.6821 3.28072 14.2688C3.62823 14.1001 4.20972 13.819 4.31306 13.653C4.38642 13.4784 4.27129 12.8327 4.20275 12.4471C4.03837 11.5197 3.85096 10.4681 4.46031 9.63121C5.0718 8.79001 6.13307 8.64383 7.06905 8.51479C7.45404 8.46178 8.09872 8.3729 8.24811 8.24546C8.37127 8.09982 8.46015 7.45565 8.51369 7.07066C8.6422 6.13469 8.78892 5.07449 9.62905 4.46247C10.0173 4.18029 10.4906 4.04321 11.078 4.04321C11.5352 4.04321 11.9984 4.12513 12.4455 4.20491C12.8027 4.2681 13.1716 4.33397 13.4425 4.33397C13.6021 4.33397 13.6583 4.31041 13.6588 4.31041C13.8179 4.21028 14.099 3.6293 14.2666 3.28233C14.68 2.42882 15.1485 1.46125 16.1423 1.13838C16.3441 1.07305 16.5583 1.03986 16.7795 1.03986C17.5318 1.03986 18.2209 1.40826 18.887 1.76487C19.2661 1.9678 19.7855 2.2457 20.0141 2.2457C20.1994 2.19751 20.6401 1.73916 20.9035 1.46501C21.5632 0.778557 22.3112 1.90735e-05 23.3639 1.90735e-05C24.4166 1.90735e-05 25.1652 0.778034 25.8249 1.46449C26.0883 1.73917 26.5301 2.19805 26.7169 2.24677C26.944 2.2457 27.4623 1.96834 27.8408 1.76594C28.5069 1.40933 29.1961 1.04041 29.9478 1.04041C30.1701 1.04041 30.3853 1.07412 30.5877 1.13945C31.5815 1.46233 32.0495 2.43044 32.4623 3.28395C32.6299 3.62986 32.91 4.2092 33.076 4.31415C33.0781 4.31415 33.137 4.33397 33.2864 4.33397C33.5573 4.33397 33.9268 4.26865 34.2845 4.20546C34.7316 4.12568 35.1937 4.04375 35.6515 4.04375C36.2389 4.04375 36.7127 4.18136 37.101 4.46354C37.9411 5.07503 38.0867 6.13577 38.2158 7.07228C38.2688 7.45727 38.3571 8.10194 38.4856 8.25187C38.6292 8.37342 39.2733 8.46178 39.6577 8.51479C40.5942 8.64383 41.6561 8.79 42.2675 9.63173C42.8774 10.467 42.6906 11.5192 42.5251 12.4477C42.4571 12.8332 42.3425 13.4784 42.4196 13.6605C42.5203 13.8195 43.1007 14.1001 43.4471 14.2682C44.3001 14.6811 45.2677 15.1491 45.5906 16.1434C45.9086 17.1233 45.4064 18.0608 44.9636 18.8881C44.7772 19.2378 44.4645 19.8225 44.4838 20.0211C44.532 20.201 44.9909 20.6423 45.2656 20.9057C45.9515 21.5654 46.7295 22.3129 46.7295 23.365C46.7295 24.4177 45.9515 25.1657 45.265 25.8249C44.9903 26.0889 44.532 26.5296 44.4827 26.7164C44.464 26.9076 44.7772 27.4928 44.9641 27.8425C45.4064 28.6698 45.9086 29.6073 45.5906 30.5872C45.2677 31.5816 44.3001 32.0495 43.4461 32.4623C43.0996 32.6305 42.5197 32.9111 42.4159 33.0765C42.3414 33.2532 42.456 33.8984 42.524 34.2845C42.6889 35.2119 42.8758 36.2635 42.2659 37.101C41.6545 37.9411 40.5937 38.0873 39.6577 38.2163C39.2727 38.2688 38.6286 38.3577 38.4792 38.4851C38.3555 38.6302 38.2666 39.2755 38.2142 39.6604C38.0846 40.5959 37.939 41.6555 37.0999 42.2676C36.7112 42.5497 36.2373 42.6868 35.651 42.6868C35.1932 42.6868 34.7305 42.6044 34.2829 42.5246C33.9257 42.4614 33.5557 42.3955 33.2853 42.3955C33.1263 42.3955 33.0701 42.4186 33.0696 42.4191C32.91 42.5192 32.6294 43.0997 32.4618 43.4461C32.0479 44.2996 31.5794 45.2677 30.5845 45.5906C30.3837 45.6559 30.169 45.6891 29.9473 45.6891C29.1961 45.6891 28.5075 45.3207 27.8414 44.9641C27.4628 44.7612 26.944 44.4838 26.7148 44.4838C26.5279 44.532 26.0867 44.9909 25.8233 45.2656C25.1641 45.9515 24.4161 46.7295 23.3639 46.7295Z" fill="#E31836"/>
<path d="M37.8045 23.365C37.8045 31.3401 31.3384 37.8057 23.365 37.8057C15.39 37.8057 8.92383 31.3401 8.92383 23.365C8.92383 15.3895 15.39 8.92549 23.365 8.92549C31.3384 8.92549 37.8045 15.3895 37.8045 23.365Z" fill="#F8C44F"/>
<path d="M19.9753 19.2076C19.1845 19.2076 18.5408 19.8513 18.5408 20.6425C18.5408 21.4337 19.1845 22.0774 19.9753 22.0774C20.7669 22.0774 21.4106 21.4337 21.4106 20.6425C21.4106 19.8513 20.7669 19.2076 19.9753 19.2076ZM19.9753 23.6426C18.3213 23.6426 16.9756 22.2969 16.9756 20.6425C16.9756 18.9885 18.3213 17.6424 19.9753 17.6424C21.6301 17.6424 22.9758 18.9885 22.9758 20.6425C22.9758 22.2969 21.6301 23.6426 19.9753 23.6426Z" fill="#E31836"/>
<path d="M26.236 25.208C25.4452 25.208 24.8015 25.8517 24.8015 26.6429C24.8015 27.4337 25.4452 28.0774 26.236 28.0774C27.0276 28.0774 27.6713 27.4337 27.6713 26.6429C27.6713 25.8517 27.0276 25.208 26.236 25.208ZM26.236 29.6426C24.582 29.6426 23.2363 28.2969 23.2363 26.6429C23.2363 24.9885 24.582 23.6428 26.236 23.6428C27.8908 23.6428 29.2365 24.9885 29.2365 26.6429C29.2365 28.2969 27.8908 29.6426 26.236 29.6426Z" fill="#E31836"/>
<path d="M19.0939 28.8916L17.9873 27.785L27.2478 18.5242L28.3544 19.6307L19.0939 28.8916Z" fill="#E31836"/>
</svg>
