<svg width="58" height="55" viewBox="0 0 58 55" fill="none" xmlns="http://www.w3.org/2000/svg">
<path d="M8.95999 25.354L10.2119 24.9457C12.2906 24.2699 14.4273 25.7796 15.4486 27.7598L19.2054 33.5249C17.6795 34.2267 15.7307 34.4714 13.5983 34.2424L8.80566 25.4157C8.85873 25.394 8.90639 25.3713 8.95999 25.354Z" fill="white"/>
<path d="M14.2726 33.2141C15.4601 33.2926 16.5734 33.2049 17.5454 32.9601L14.486 28.2562C13.6039 26.5452 11.9253 25.5288 10.5467 25.9755L10.3729 26.0324L14.2726 33.2141ZM15.1152 35.4087C14.5845 35.4087 14.0355 35.3784 13.4832 35.3193L12.9179 35.2587L7.27832 24.8714L8.39539 24.4139C8.49069 24.3733 8.55459 24.3473 8.62335 24.3245L9.87635 23.9163C10.3198 23.7722 10.779 23.6991 11.2425 23.6991C13.2503 23.6991 15.263 25.0761 16.385 27.2128L20.798 33.9846L19.6582 34.5087C18.3598 35.106 16.8312 35.4087 15.1152 35.4087Z" fill="#E31836"/>
<path d="M43.5715 44.9985H34.845L14.5757 37.4752L1.58984 28.5402L1.69814 28.4151L2.6295 27.4837C4.17598 25.9378 6.76426 26.3147 8.57227 27.6175L16.2965 32.0658L19.3342 33.8321H32.3537L32.3504 32.6446L24.2785 32.6636C22.21 32.604 20.5807 30.3 20.6398 28.2299C20.6398 28.2299 20.6852 27.7594 20.6901 27.7079H35.0925L40.6616 32.6035H43.5715" fill="white"/>
<path d="M43.5715 46.0815H34.6505L14.0726 38.4434L0 28.7606L0.756436 27.8487C0.82358 27.767 0.87448 27.7074 0.932418 27.6495L1.86378 26.7181C3.85914 24.7222 7.03222 25.1998 9.15862 26.7051L19.6266 32.7492H21.6777C20.3305 31.6608 19.5101 29.8538 19.5573 28.1991L19.5616 28.1254L19.7018 26.625H35.5007L41.0704 31.5205H43.5715V33.6865H40.2533L34.6841 28.7909H21.7573C21.9652 30.1262 23.0374 31.5444 24.3093 31.5812L33.43 31.559L33.4392 34.9151H19.0423L15.7523 33.002L7.93975 28.4963C6.58984 27.5238 4.53761 27.1069 3.39508 28.2494L3.26568 28.3788L15.0787 36.5065L35.0393 43.9156H43.5715V46.0815Z" fill="#E31836"/>
<path d="M45.2793 55H57.4967V30.2646H45.2793V55Z" fill="#E31836"/>
<path d="M25.536 10.2881H23.3701V3.42913H25.536V10.2881Z" fill="#E31836"/>
<path d="M14.8866 10.2881H12.7207V3.42913H14.8866V10.2881Z" fill="#E31836"/>
<path d="M20.121 6.85889H17.9551V-8.29697e-05H20.121V6.85889Z" fill="#E31836"/>
<path d="M12.6562 18.4863C12.6562 22.1499 15.6252 25.1216 19.2911 25.1216C22.9553 25.1216 25.9247 22.1499 25.9247 18.4863C25.9247 14.8258 22.9553 11.8531 19.2911 11.8531C15.6252 11.8531 12.6562 14.8258 12.6562 18.4863Z" fill="#F8C44F"/>
<path d="M49.3475 52.8711H47.2715V50.7052H49.3475V52.8711Z" fill="white"/>
</svg>
