<svg width="51" height="55" viewBox="0 0 51 55" fill="none" xmlns="http://www.w3.org/2000/svg">
<path d="M36.4623 13.4197C36.4623 17.2821 33.3302 20.4131 29.4689 20.4131C25.606 20.4131 22.4756 17.2821 22.4756 13.4197C22.4756 9.55792 25.606 6.42695 29.4689 6.42695C33.3302 6.42695 36.4623 9.55792 36.4623 13.4197Z" fill="#F8C44F"/>
<path d="M29.9814 4.55811H27.7134V0H29.9814V4.55811Z" fill="#E31836"/>
<path d="M23.5984 6.60107L21.3208 2.65418L23.2849 1.52077L25.5631 5.46763L23.5984 6.60107Z" fill="#E31836"/>
<path d="M21.0567 10.4277L17.1099 8.14897L18.2439 6.18488L22.1907 8.46365L21.0567 10.4277Z" fill="#E31836"/>
<path d="M20.7689 15.0129H16.2119V12.7449H20.7689V15.0129Z" fill="#E31836"/>
<path d="M18.8654 21.4065L17.7314 19.4424L21.6778 17.1631L22.8118 19.1272L18.8654 21.4065Z" fill="#E31836"/>
<path d="M40.694 20.3303L36.7471 18.0521L37.8811 16.0875L41.8279 18.3657L40.694 20.3303Z" fill="#E31836"/>
<path d="M38.1685 13.7712V11.5032L42.726 11.5027V13.7707L38.1685 13.7712Z" fill="#E31836"/>
<path d="M37.2595 9.35205L36.1255 7.38799L40.0724 5.10923L41.2064 7.07329L37.2595 9.35205Z" fill="#E31836"/>
<path d="M34.264 5.97974L32.2993 4.84632L34.5769 0.898875L36.5416 2.03232L34.264 5.97974Z" fill="#E31836"/>
<path d="M15.5723 48.1576H19.3127C20.6622 49.9651 22.81 51.1394 25.2373 51.1394H30.181H37.2571H37.62L37.6211 51.123H40.5678C42.4208 51.123 43.9239 49.6199 43.9239 47.7675C43.9239 45.9128 42.4208 44.4114 40.5678 44.4114H43.2525C45.1066 44.4114 46.6092 42.9072 46.6092 41.0548C46.6092 39.2013 45.1066 37.6981 43.2525 37.6981H44.1467C46.0008 37.6981 47.5033 36.1945 47.5033 34.3426C47.5033 32.4891 46.0008 30.9866 44.1467 30.9866H45.9384C47.7908 30.9866 49.2928 29.4829 49.2928 27.63C49.2928 25.777 47.7908 24.2745 45.9384 24.2745H36.5399C36.3471 24.2745 36.1594 24.2937 35.9746 24.3255H32.2142L33.3953 20.1524V15.4236C33.3953 13.1018 31.5134 11.2193 29.1899 11.2193H27.7905C27.7327 11.2193 27.676 11.225 27.6164 11.2278V17.6621L25.9869 19.9585L19.8763 26.6343C19.0015 27.5557 18.3664 28.6982 18.0557 29.9717H15.5723" fill="white"/>
<path d="M37.62 52.2732H25.2373C22.7204 52.2732 20.394 51.1936 18.7684 49.2913H15.5723V47.0234H19.8815L20.2211 47.4787C21.4203 49.0844 23.2489 50.0052 25.2373 50.0052L40.5678 49.9888C41.7931 49.9888 42.7899 48.992 42.7899 47.7673C42.7899 46.5414 41.7931 45.5452 40.5678 45.5452V43.2772H43.2525C44.4778 43.2772 45.4752 42.2798 45.4752 41.0546C45.4752 39.8287 44.4778 38.8319 43.2525 38.8319V36.5639H44.1467C45.3725 36.5639 46.3693 35.5671 46.3693 34.3424C46.3693 33.1171 45.3725 32.1204 44.1467 32.1204V29.8524H45.9384C47.1626 29.8524 48.1588 28.8556 48.1588 27.6298C48.1588 26.405 47.1626 25.4083 45.9384 25.4083H36.5399C36.4248 25.4083 36.3023 25.4196 36.1662 25.4428L35.9746 25.4593H30.7145L32.2613 19.9951V15.4234C32.2613 13.7304 30.8835 12.3531 29.1899 12.3531H28.7504V18.0237L26.8238 20.7237L20.7127 27.4001C19.9484 28.2052 19.4154 29.1822 19.1574 30.2402L18.9465 31.1054H15.5723V28.8375H17.2143C17.6135 27.7295 18.24 26.7107 19.0542 25.8534L25.1029 19.2444L26.4824 17.3002V10.1452L27.5631 10.0948C27.6658 10.088 27.7276 10.0851 27.7905 10.0851H29.1899C32.1343 10.0851 34.5293 12.4796 34.5293 15.4234V20.3098L33.7134 23.1913H35.8844C36.1112 23.1567 36.3261 23.1403 36.5399 23.1403H45.9384C48.4134 23.1403 50.4268 25.1542 50.4268 27.6298C50.4268 29.4459 49.3432 31.013 47.7902 31.7201C48.3232 32.4583 48.6373 33.3644 48.6373 34.3424C48.6373 35.9045 47.835 37.2829 46.6211 38.0875C47.3191 38.879 47.7432 39.9183 47.7432 41.0546C47.7432 43.1405 46.3138 44.8988 44.382 45.4012C44.8101 46.0884 45.0579 46.8992 45.0579 47.7673C45.0579 50.2428 43.0433 52.2567 40.5678 52.2567L37.62 52.2732Z" fill="#E31836"/>
<path d="M0 55H14.0108V28.5989H0V55Z" fill="#E31836"/>
<path d="M10.9513 52.0681H9.21826V50.3671H10.9513V52.0681Z" fill="white"/>
</svg>
