<svg width="20" height="20" viewBox="0 0 20 20" fill="none" xmlns="http://www.w3.org/2000/svg">
<g id="Group 3">
<path id="Star" fill-rule="evenodd" clip-rule="evenodd" d="M10.5739 17.4022C10.2294 17.1608 9.77061 17.1608 9.42609 17.4022L7.75035 18.5766C7.18166 18.9751 6.38987 18.6869 6.21041 18.0161L5.6816 16.0393C5.57288 15.6329 5.22143 15.338 4.80231 15.3015L2.76374 15.124C2.07193 15.0638 1.65062 14.334 1.94436 13.7048L2.80991 11.8506C2.98786 11.4694 2.90819 11.0175 2.61059 10.7202L1.16306 9.27384C0.671824 8.783 0.818141 7.95319 1.44763 7.65996L3.30255 6.79592C3.6839 6.61828 3.91329 6.22096 3.87646 5.80188L3.69728 3.76345C3.63648 3.07169 4.28196 2.53006 4.95265 2.71007L6.929 3.24049C7.33532 3.34954 7.76643 3.19263 8.0076 2.84791L9.18061 1.17122C9.57869 0.60221 10.4213 0.602209 10.8194 1.17122L11.9924 2.84791C12.2336 3.19263 12.6647 3.34954 13.071 3.24049L15.0473 2.71007C15.718 2.53006 16.3635 3.07168 16.3027 3.76345L16.1235 5.80188C16.0867 6.22096 16.3161 6.61828 16.6975 6.79592L18.5524 7.65996C19.1819 7.95319 19.3282 8.783 18.8369 9.27384L17.3894 10.7202C17.0918 11.0175 17.0121 11.4694 17.1901 11.8506L18.0556 13.7048C18.3494 14.334 17.9281 15.0638 17.2363 15.124L15.1977 15.3015C14.7786 15.338 14.4271 15.6329 14.3184 16.0393L13.7896 18.0161C13.6101 18.6869 12.8183 18.9751 12.2497 18.5766L10.5739 17.4022Z" fill="white"/>
<g id="fi:percent" clip-path="url(#clip0_358_3076)">
<path id="Vector" d="M12.3322 7.6665L7.66553 12.3332" stroke="#E31836" stroke-linecap="round" stroke-linejoin="round"/>
<path id="Vector_2" d="M11.8324 12.6667C12.2926 12.6667 12.6657 12.2936 12.6657 11.8333C12.6657 11.3731 12.2926 11 11.8324 11C11.3721 11 10.999 11.3731 10.999 11.8333C10.999 12.2936 11.3721 12.6667 11.8324 12.6667Z" stroke="#E31836" stroke-linecap="round" stroke-linejoin="round"/>
<path id="Vector_3" d="M8.16585 9.00016C8.62609 9.00016 8.99919 8.62707 8.99919 8.16683C8.99919 7.70659 8.62609 7.3335 8.16585 7.3335C7.70562 7.3335 7.33252 7.70659 7.33252 8.16683C7.33252 8.62707 7.70562 9.00016 8.16585 9.00016Z" stroke="#E31836" stroke-linecap="round" stroke-linejoin="round"/>
</g>
</g>
<defs>
<clipPath id="clip0_358_3076">
<rect width="8" height="8" fill="white" transform="translate(5.99902 6)"/>
</clipPath>
</defs>
</svg>
