<?xml version="1.0" encoding="utf-8"?>
<!-- Generator: Adobe Illustrator 16.0.0, SVG Export Plug-In . SVG Version: 6.00 Build 0)  -->
<!DOCTYPE svg PUBLIC "-//W3C//DTD SVG 1.1//EN" "http://www.w3.org/Graphics/SVG/1.1/DTD/svg11.dtd" [
	<!ENTITY ns_extend "http://ns.adobe.com/Extensibility/1.0/">
	<!ENTITY ns_ai "http://ns.adobe.com/AdobeIllustrator/10.0/">
	<!ENTITY ns_graphs "http://ns.adobe.com/Graphs/1.0/">
	<!ENTITY ns_vars "http://ns.adobe.com/Variables/1.0/">
	<!ENTITY ns_imrep "http://ns.adobe.com/ImageReplacement/1.0/">
	<!ENTITY ns_sfw "http://ns.adobe.com/SaveForWeb/1.0/">
	<!ENTITY ns_custom "http://ns.adobe.com/GenericCustomNamespace/1.0/">
	<!ENTITY ns_adobe_xpath "http://ns.adobe.com/XPath/1.0/">
]>
<svg version="1.1" id="Layer_1" xmlns:x="&ns_extend;" xmlns:i="&ns_ai;" xmlns:graph="&ns_graphs;"
	 xmlns="http://www.w3.org/2000/svg" xmlns:xlink="http://www.w3.org/1999/xlink" x="0px" y="0px" width="333.689px"
	 height="87.009px" viewBox="0 0 333.689 87.009" enable-background="new 0 0 333.689 87.009" xml:space="preserve">
<metadata>
	<sfw  xmlns="&ns_sfw;">
		<slices></slices>
		<sliceSourceBounds  width="333.69" height="87.009" y="-620.368" x="10.111" bottomLeftOrigin="true"></sliceSourceBounds>
	</sfw>
</metadata>
<g>
	<path fill-rule="evenodd" clip-rule="evenodd" fill="#E41737" d="M25.889,0.03c8.118,0,16.235-0.002,24.354,0
		c4.464,0.001,7.664,2.998,7.98,7.474c0.036,0.506,0.054,1.015,0.054,1.521c0.003,11.501-0.009,23.001,0.026,34.501
		c0.002,0.892-0.259,1.053-1.078,1.039c-2.902-0.051-5.806-0.039-8.709-0.005c-0.659,0.009-0.836-0.164-0.835-0.831
		c0.022-9.866,0.013-19.731,0.021-29.597c0-0.835-0.101-1.634-0.569-2.343c-0.546-0.822-1.296-1.329-2.314-1.331
		c-2.79-0.008-5.581-0.021-8.371,0.004c-1.051,0.01-1.797,0.718-1.942,1.759c-0.055,0.389-0.049,0.787-0.05,1.182
		c-0.003,10.062-0.011,20.124,0.016,30.188c0.002,0.773-0.193,0.986-0.971,0.974c-2.959-0.047-5.919-0.039-8.878-0.002
		c-0.648,0.009-0.782-0.18-0.781-0.801c0.021-10.175,0.014-20.351,0.018-30.526c0-0.596-0.007-1.184-0.31-1.723
		c-0.391-0.697-0.973-1.064-1.786-1.064c-3.523,0.003-7.047,0.011-10.57-0.013c-0.533-0.003-0.583,0.229-0.581,0.66
		c0.014,2.479,0.006,4.96,0.006,7.44c0,8.344-0.014,16.687,0.021,25.03c0.004,0.848-0.245,1.012-1.034,0.998
		c-2.93-0.048-5.863-0.033-8.794-0.007C0.223,44.562-0.001,44.471,0,43.789C0.024,29.47,0.024,15.151,0.001,0.832
		C0,0.126,0.231,0.017,0.859,0.018C9.202,0.035,17.545,0.03,25.889,0.03z"/>
	<path fill-rule="evenodd" clip-rule="evenodd" fill="#E41737" d="M253.642,22.336c0,7.103-0.014,14.205,0.019,21.306
		c0.004,0.765-0.21,0.921-0.94,0.92c-10.652-0.024-21.306-0.058-31.96,0.01c-3.061,0.019-5.554-2.25-5.588-5.434
		c-0.071-6.876-0.07-13.755,0.001-20.63c0.033-3.127,2.439-6.661,6.803-6.595c6.649,0.101,13.302,0.013,19.953,0.042
		c0.774,0.004,1.067-0.141,1.054-0.998c-0.05-3.383,0.003-6.765-0.026-10.146c-0.005-0.646,0.188-0.803,0.813-0.796
		c3.016,0.032,6.032,0.035,9.048-0.002c0.674-0.008,0.841,0.184,0.839,0.847C253.632,8.018,253.642,15.177,253.642,22.336z
		 M242.885,12.278c-0.285,0.146-0.333,0.442-0.457,0.673c-0.924,1.739-1.866,3.469-2.734,5.235
		c-0.774,1.576-1.999,2.261-3.726,2.233c-2.227-0.033-4.453-0.012-6.678-0.007c-2.242,0.006-3.482,1.249-3.487,3.514
		c-0.009,3.353-0.004,6.706-0.002,10.059c0.002,1.736,0.672,2.417,2.38,2.417c4.622,0.002,9.242-0.016,13.863,0.019
		c0.727,0.005,0.95-0.153,0.946-0.919c-0.031-7.523-0.018-15.047-0.023-22.57C242.967,12.723,243.053,12.49,242.885,12.278z"/>
	<path fill-rule="evenodd" clip-rule="evenodd" fill="#E41737" d="M288.396,20.396c1.541-2.488,2.936-4.828,4.427-7.107
		c0.659-1.005,1.755-1.39,2.943-1.392c8.032-0.007,16.064-0.044,24.096,0.016c3.423,0.023,6.103,2.681,6.4,6.108
		c0.044,0.506,0.066,1.014,0.066,1.52c0.005,8.033-0.009,16.065,0.021,24.098c0.003,0.746-0.181,0.926-0.926,0.924
		c-11.162-0.026-22.322-0.016-33.483-0.019c-2.515,0-3.889-1.392-3.89-3.935c-0.002-3.665,0.001-7.328,0-10.992
		c-0.001-1.257,0.344-2.392,1.201-3.335c0.734-0.808,1.643-1.266,2.753-1.266c5.919-0.002,11.838-0.009,17.756-0.001
		c1.073,0.001,1.658,0.481,1.714,1.56c0.077,1.546,0.028,3.099,0.04,4.648c0.006,0.598-0.443,0.396-0.727,0.396
		c-3.805,0.012-7.61,0.008-11.414,0.008c-0.198,0-0.396-0.005-0.593,0.001c-0.852,0.026-1.359,0.431-1.398,1.257
		c-0.054,1.125-0.01,2.254-0.025,3.381c-0.005,0.337,0.139,0.454,0.454,0.429c0.111-0.009,0.225-0.001,0.338-0.001
		c5.637,0,11.272-0.01,16.91,0.014c0.642,0.003,0.861-0.135,0.855-0.823c-0.032-3.946-0.03-7.893,0-11.838
		c0.015-1.845-1.037-3.71-3.641-3.681c-7.581,0.086-15.162,0.03-22.744,0.03C289.226,20.396,288.922,20.396,288.396,20.396z"/>
	<path fill-rule="evenodd" clip-rule="evenodd" fill="#E41737" d="M65.341,20.396c1.517-2.458,2.899-4.775,4.363-7.039
		c0.673-1.041,1.772-1.458,2.992-1.46c8.033-0.008,16.065-0.042,24.096,0.014c3.364,0.023,6.009,2.575,6.383,5.939
		c0.063,0.56,0.091,1.125,0.092,1.687c0.005,8.032-0.007,16.064,0.021,24.096c0.002,0.746-0.179,0.932-0.928,0.93
		c-11.161-0.026-22.321-0.016-33.481-0.019c-2.509,0-3.897-1.401-3.899-3.93c-0.002-3.664-0.002-7.327,0-10.99
		c0.001-1.35,0.393-2.556,1.376-3.52c0.688-0.673,1.51-1.082,2.491-1.083c5.975-0.007,11.949-0.014,17.924-0.005
		c1.001,0.002,1.586,0.51,1.636,1.551c0.074,1.547,0.023,3.099,0.041,4.648c0.006,0.6-0.433,0.404-0.719,0.404
		c-3.579,0.012-7.158,0.008-10.737,0.008c-2.624,0-2.701,0.068-2.686,2.694c0.004,0.755-0.321,1.74,0.13,2.204
		c0.492,0.508,1.493,0.157,2.269,0.16c5.101,0.017,10.202-0.004,15.303,0.022c0.654,0.004,0.85-0.149,0.844-0.83
		c-0.033-3.944-0.009-7.89-0.016-11.835c-0.005-2.41-1.245-3.647-3.628-3.647c-7.581,0-15.163,0-22.744,0
		C66.158,20.396,65.853,20.396,65.341,20.396z"/>
	<path fill-rule="evenodd" clip-rule="evenodd" fill="#E41737" d="M171.851,28.205c0-5.13,0.014-10.258-0.017-15.386
		c-0.004-0.682,0.134-0.894,0.859-0.893c9.58,0.021,19.162,0.066,28.741-0.028c4.417-0.043,6.748,3.668,6.779,6.627
		c0.036,3.354,0.021,6.706,0.021,10.06c0.003,5.044-0.011,10.088,0.016,15.131c0.004,0.652-0.152,0.854-0.828,0.845
		c-3.014-0.037-6.03-0.036-9.044,0c-0.655,0.008-0.786-0.199-0.784-0.815c0.021-6.509,0.013-13.018,0.014-19.527
		c0.001-0.735-0.021-1.464-0.384-2.136c-0.532-0.985-1.308-1.652-2.459-1.662c-3.917-0.028-7.834-0.008-11.75-0.032
		c-0.604-0.004-0.51,0.358-0.51,0.716c0,4.143,0,8.285,0,12.427c0,3.409-0.017,6.819,0.014,10.229
		c0.007,0.617-0.126,0.811-0.777,0.802c-3.043-0.036-6.086-0.036-9.13,0c-0.65,0.009-0.78-0.186-0.777-0.802
		C171.861,38.574,171.851,33.389,171.851,28.205z"/>
	<path fill-rule="evenodd" clip-rule="evenodd" fill="#E41837" d="M120.428,20.454c0.003,7.803,0,15.605,0.023,23.408
		c0.002,0.572-0.175,0.697-0.71,0.694c-3.07-0.023-6.141-0.023-9.211,0c-0.557,0.004-0.708-0.161-0.707-0.717
		c0.015-14.365,0.014-28.731,0.002-43.098c-0.001-0.534,0.119-0.731,0.699-0.726c3.07,0.029,6.141,0.025,9.211,0.003
		c0.536-0.006,0.719,0.121,0.716,0.693c-0.024,6.479-0.021,12.957-0.025,19.437C120.427,20.25,120.428,20.352,120.428,20.454z"/>
	<path fill-rule="evenodd" clip-rule="evenodd" fill="#E41737" d="M288.915,11.951c-1.499,2.375-2.897,4.651-4.363,6.884
		c-0.671,1.023-1.665,1.533-2.939,1.513c-2.254-0.037-4.507-0.012-6.761-0.01c-2.37,0.003-3.559,1.193-3.562,3.6
		c-0.007,6.563-0.014,13.126,0.015,19.688c0.002,0.712-0.125,0.954-0.901,0.94c-3.013-0.053-6.028-0.037-9.041-0.008
		c-0.588,0.005-0.751-0.149-0.748-0.745c0.018-9.041,0.003-18.083,0.018-27.125c0.007-2.873,1.846-4.765,4.664-4.772
		c7.718-0.021,15.437-0.008,23.153-0.006C288.556,11.91,288.66,11.928,288.915,11.951z"/>
	<path fill-rule="evenodd" clip-rule="evenodd" fill="#E41838" d="M120.428,20.454c0-0.103-0.001-0.204-0.003-0.305
		c0.334-0.061,0.381-0.382,0.52-0.603c1.258-2.002,2.527-3.996,3.742-6.022c0.694-1.159,1.64-1.66,2.993-1.647
		c4.169,0.04,8.341,0.105,12.508-0.009c4.873-0.134,7.125,3.765,7.126,7.097c0,4.536,0,9.07,0,13.606
		c0,3.747-0.013,7.494,0.015,11.24c0.004,0.595-0.159,0.753-0.748,0.747c-3.042-0.028-6.085-0.035-9.127,0.004
		c-0.679,0.009-0.766-0.24-0.764-0.828c0.02-6.537,0.011-13.073,0.02-19.609c0-0.8-0.063-1.574-0.511-2.269
		c-0.513-0.796-1.195-1.404-2.172-1.417C129.493,20.381,124.96,20.342,120.428,20.454z"/>
	<path fill-rule="evenodd" clip-rule="evenodd" fill="#E41737" d="M164.898,12.276c0,0.376,0,0.571,0,0.765
		c0,10.223-0.005,20.446,0.014,30.669c0.001,0.642-0.138,0.861-0.821,0.852c-3.013-0.038-6.026-0.036-9.04-0.001
		c-0.647,0.008-0.785-0.19-0.783-0.809c0.022-6.956,0.019-13.912,0.012-20.868c-0.002-2.127,0.814-3.791,2.598-5.007
		C159.523,16.072,162.13,14.214,164.898,12.276z"/>
	<path fill-rule="evenodd" clip-rule="evenodd" fill="#666364" d="M259.789,54.295c2.09,0.106,4.598-0.168,7.097,0.258
		c4.429,0.752,6.901,3.977,6.541,8.905c-0.333,4.546-2.813,7.327-6.889,8.899c-0.595,0.229-0.703,0.396-0.425,0.99
		c1.505,3.209,2.979,6.433,4.426,9.668c0.247,0.554,0.515,0.814,1.123,0.631c0.212-0.064,0.444-0.067,0.67-0.083
		c1.173-0.083,1.649,0.599,1.205,1.716c-0.289,0.727-0.897,1.066-1.593,1.264c-0.849,0.239-1.727,0.281-2.6,0.229
		c-0.893-0.056-1.29-0.715-1.604-1.434c-1.637-3.735-3.28-7.469-4.887-11.218c-0.262-0.612-0.508-0.913-1.267-0.843
		c-1.375,0.127-2.758-0.041-4.123-0.253c-0.515-0.079-0.676,0.06-0.732,0.584c-0.438,4.032-0.92,8.058-1.361,12.089
		c-0.06,0.543-0.27,0.824-0.809,0.859c-0.142,0.009-0.281,0.028-0.422,0.035c-1.937,0.107-2.44-0.419-2.255-2.351
		c0.831-8.634,1.875-17.244,2.967-25.847c0.147-1.174,0.158-1.175-1.008-1.203c-0.676-0.017-1.353-0.045-2.028-0.031
		c-0.432,0.007-0.595-0.196-0.652-0.593c-0.152-1.041,0.346-1.821,1.381-2.099c1.024-0.275,2.073-0.158,3.113-0.17
		C256.897,54.283,258.138,54.295,259.789,54.295z M261.658,57.218c-0.873,0-1.747,0.007-2.619-0.004
		c-0.363-0.005-0.559,0.087-0.604,0.504c-0.432,4.029-0.881,8.057-1.335,12.084c-0.051,0.444,0.038,0.672,0.546,0.704
		c1.825,0.116,3.649,0.296,5.484,0.189c3.41-0.198,5.796-2.037,6.566-5.082c0.258-1.021,0.292-2.06,0.254-3.105
		c-0.095-2.515-1.588-4.373-4.011-5.015C264.53,57.119,263.094,57.167,261.658,57.218z"/>
	<path fill-rule="evenodd" clip-rule="evenodd" fill="#676465" d="M315.582,74.897c-1.289-0.125-2.582-0.224-3.866-0.39
		c-0.42-0.054-0.556,0.034-0.561,0.442c-0.03,1.895,0.017,3.778,0.731,5.572c0.864,2.169,2.479,3.286,4.797,3.371
		c2.494,0.092,4.88-0.396,7.111-1.514c0.601-0.301,0.873-0.125,1.109,0.396c0.34,0.753,0.166,1.536-0.547,2.217
		c-0.967,0.926-2.15,1.412-3.456,1.639c-2.434,0.423-4.876,0.595-7.292-0.047c-3.209-0.854-4.82-3.193-5.409-6.279
		c-0.784-4.103-0.446-8.154,1.179-12.019c2.405-5.72,7.51-7.557,12.562-6.654c3.324,0.593,4.81,2.87,4.404,6.747
		c-0.369,3.543-2.472,5.542-6.213,6.2C318.628,74.844,317.111,74.926,315.582,74.897z M315.72,72.271
		c1.747,0.028,3.182-0.005,4.581-0.399c1.631-0.46,2.695-1.462,3.024-3.165c0.431-2.227-0.538-4.004-2.507-4.363
		c-2.678-0.488-5.031,0.184-6.877,2.275c-1.201,1.363-1.874,2.981-2.296,4.735c-0.132,0.545,0.076,0.63,0.506,0.682
		C313.438,72.191,314.729,72.271,315.72,72.271z"/>
	<path fill-rule="evenodd" clip-rule="evenodd" fill="#676465" d="M296.524,86.733c-1.906-0.025-3.678-0.15-5.349-0.832
		c-1.035-0.421-2.011-0.948-2.209-2.219c-0.11-0.709,0.047-1.344,0.586-1.85c0.729-0.686,1.015-0.641,1.775-0.009
		c2.371,1.969,5.114,2.543,8.075,1.867c1.545-0.353,2.443-1.471,2.617-3.064c0.159-1.466-0.497-2.536-1.715-3.329
		c-1.5-0.979-3.193-1.533-4.811-2.25c-5.352-2.371-4.749-8.545-2.121-11.062c1.667-1.597,3.674-2.383,5.931-2.529
		c1.836-0.119,3.67-0.015,5.375,0.795c1.286,0.611,1.748,1.511,1.466,2.705c-0.24,1.014-0.917,1.249-1.803,0.727
		c-2.317-1.371-4.804-1.576-7.313-0.71c-1.358,0.469-2.207,1.569-2.377,3.035c-0.188,1.601,0.419,2.86,1.832,3.701
		c1.455,0.867,3.079,1.377,4.573,2.159c0.075,0.04,0.159,0.061,0.234,0.099c3.124,1.55,4.178,3.347,3.813,6.505
		c-0.329,2.852-2.441,5.237-5.269,5.946C298.708,86.7,297.562,86.8,296.524,86.733z"/>
	<path fill-rule="evenodd" clip-rule="evenodd" fill="#E41838" d="M154.283,16.024c0-3.246,0-6.393,0-9.538
		c0-1.915,0.025-3.83-0.014-5.742c-0.012-0.604,0.175-0.75,0.758-0.744c3.068,0.027,6.137,0.022,9.205,0.003
		c0.495-0.003,0.687,0.098,0.68,0.646c-0.031,2.363-0.019,4.729-0.007,7.092c0.002,0.34-0.089,0.564-0.374,0.773
		c-3.304,2.439-6.596,4.896-9.894,7.345C154.571,15.907,154.487,15.93,154.283,16.024z"/>
	<path fill-rule="evenodd" clip-rule="evenodd" fill="#676465" d="M279.354,64.958c-0.254,0-0.509,0.018-0.761-0.005
		c-0.392-0.032-0.887,0.222-1.107-0.334c-0.22-0.556-0.196-1.102,0.178-1.599c0.282-0.376,0.672-0.619,1.114-0.725
		c1.518-0.362,3.054-0.522,4.606-0.252c1.014,0.177,1.35,0.519,1.269,1.541c-0.146,1.851-0.393,3.693-0.594,5.54
		c-0.469,4.282-1.154,8.54-1.483,12.837c-0.118,1.546,0.307,1.911,1.876,1.682c0.444-0.063,0.896-0.133,1.319-0.274
		c0.602-0.202,0.813,0.07,0.926,0.598c0.216,1.022-0.09,1.781-1.094,2.199c-1.601,0.668-3.281,0.797-4.962,0.342
		c-1.105-0.299-1.509-1.186-1.577-2.254c-0.124-1.954,0.193-3.877,0.438-5.805c0.537-4.245,1.063-8.493,1.641-12.732
		c0.102-0.738-0.133-0.883-0.775-0.804c-0.333,0.039-0.676,0.007-1.013,0.007C279.354,64.932,279.354,64.944,279.354,64.958z"/>
	<path fill-rule="evenodd" clip-rule="evenodd" fill="#676465" d="M331.394,81.362c1.537,0.014,2.309,0.812,2.296,2.38
		c-0.015,1.754-1.15,2.829-2.979,2.82c-1.492-0.008-2.341-0.878-2.321-2.383C328.409,82.47,329.607,81.349,331.394,81.362z"/>
	<path fill-rule="evenodd" clip-rule="evenodd" fill="#676465" d="M283.133,58.081c-1.382-0.005-2.072-0.701-2.059-2.08
		c0.012-1.561,1.076-2.554,2.723-2.543c1.305,0.008,2.009,0.729,2.007,2.061C285.803,57.141,284.816,58.085,283.133,58.081z"/>
	<path fill-rule="evenodd" clip-rule="evenodd" fill="#FEFEFE" d="M242.885,12.278c0.168,0.212,0.082,0.444,0.082,0.653
		c0.006,7.523-0.008,15.047,0.023,22.57c0.004,0.766-0.22,0.924-0.946,0.919c-4.621-0.034-9.241-0.017-13.863-0.019
		c-1.708,0-2.378-0.681-2.38-2.417c-0.002-3.353-0.007-6.706,0.002-10.059c0.005-2.265,1.245-3.508,3.487-3.514
		c2.225-0.005,4.451-0.026,6.678,0.007c1.727,0.027,2.951-0.657,3.726-2.233c0.868-1.767,1.811-3.496,2.734-5.235
		C242.552,12.721,242.6,12.424,242.885,12.278z"/>
</g>
</svg>
