<?xml version="1.0" encoding="utf-8"?>
<!-- Generator: Adobe Illustrator 16.0.0, SVG Export Plug-In . SVG Version: 6.00 Build 0)  -->
<!DOCTYPE svg PUBLIC "-//W3C//DTD SVG 1.1//EN" "http://www.w3.org/Graphics/SVG/1.1/DTD/svg11.dtd">
<svg version="1.1" id="Layer_1" xmlns="http://www.w3.org/2000/svg" xmlns:xlink="http://www.w3.org/1999/xlink" x="0px" y="0px"
	 width="323.4px" height="68.7px" viewBox="0 0 323.4 68.7" enable-background="new 0 0 323.4 68.7" xml:space="preserve">
<g>
	<path fill="#FFFFFF" d="M11.6,25.3h4.6l-1.7,4.6H9.9L11.6,25.3z M20.1,14.3l-2.8,7.9h-4.5l2.8-7.9h-3.5l-2.8,7.9H3.5l-1.1,3.1h5.7
		l-1.6,4.6H1.1L0,33h5.4l-2.8,7.9H6L8.9,33h4.6l-2.8,7.9h3.5L17,33h5.6l1.1-3.1H18l1.6-4.6H25l1.1-3.1h-5.3l2.8-7.9H20.1z"/>
	<polygon fill="#FFFFFF" points="35.6,40.7 30.5,19.9 27.5,19.9 28.4,14.4 41,14.4 40,19.9 37,19.9 39.5,32.3 46.5,19.9 43.4,19.9 
		44.4,14.4 56.7,14.4 55.8,19.9 53.2,19.9 40,40.7 	"/>
	<path fill="#FFFFFF" d="M66,35.3h3.7l-1,5.4h-3.7H54.9l1-5.4h3.6l2.8-15.4h-3.7l0.9-5.4h10.2L66,35.3z M61.8,10L63,3.2h8.3L70.2,10
		H61.8z"/>
	<g>
		<defs>
			<rect id="SVGID_1_" width="323.4" height="68.7"/>
		</defs>
		<clipPath id="SVGID_2_">
			<use xlink:href="#SVGID_1_"  overflow="visible"/>
		</clipPath>
		<path clip-path="url(#SVGID_2_)" fill="#FFFFFF" d="M85.8,17.6h0.5c0.4-1.2,1-2.2,1.8-2.9c0.8-0.7,1.8-1,2.9-1
			c1.3,0,2.3,0.4,3,1.1c0.7,0.8,1.1,1.8,1.1,3c0,1.4-0.5,2.6-1.4,3.6c-0.9,1-2.1,1.4-3.6,1.4c-1.1,0-2-0.3-2.7-0.9
			c-0.7-0.6-1.1-1.6-1.4-2.8h-0.5l-2.9,16.2h4.2l-0.9,5.4H71.5l1-5.4h3.6l2.8-15.4h-3.7l0.9-5.4h10.2L85.8,17.6z"/>
		<path clip-path="url(#SVGID_2_)" fill="#FFFFFF" d="M119.6,14.4h9.9l-1,5.4H125l-2.8,15.4h3.7l-1,5.4h-10.3l0.5-2.1
			c-1.2,0.9-2.5,1.6-3.9,2.1c-1.4,0.5-2.8,0.7-4.2,0.7c-3.5,0-6.3-1.2-8.5-3.5c-2.2-2.3-3.3-5.3-3.3-9c0-4.3,1.4-7.8,4.3-10.8
			c2.9-2.9,6.5-4.4,10.7-4.4c1.8,0,3.5,0.3,5,1c1.5,0.7,2.7,1.6,3.7,2.9L119.6,14.4z M108.9,36.2c2.6,0,4.7-0.9,6.3-2.8
			c1.6-1.9,2.5-4.3,2.5-7.2c0-2.1-0.7-3.9-2-5.3c-1.3-1.4-3.1-2.1-5.2-2.1c-2.5,0-4.5,1-6.2,2.9c-1.7,1.9-2.5,4.3-2.5,7.2
			c0,2.2,0.6,4,1.9,5.3C105,35.6,106.7,36.2,108.9,36.2"/>
		<polygon clip-path="url(#SVGID_2_)" fill="#FFFFFF" points="139.5,35.3 143.2,35.3 142.2,40.7 128.4,40.7 129.3,35.3 133,35.3 
			138.2,5.4 134.6,5.4 135.5,0 145.7,0 		"/>
		<path clip-path="url(#SVGID_2_)" fill="#FFFFFF" d="M160,14.4l-0.7,3.2c1.6-1.3,3.2-2.3,4.8-2.9c1.6-0.7,3.1-1,4.7-1
			c1.7,0,3.2,0.4,4.2,1.2c1.1,0.8,1.8,1.9,2.1,3.3c1.7-1.5,3.3-2.6,5.1-3.3c1.7-0.8,3.4-1.1,5.1-1.1c2.1,0,3.7,0.5,4.9,1.6
			c1.1,1.1,1.7,2.6,1.7,4.6c0,0.3,0,0.8-0.1,1.3c-0.1,0.5-0.1,1.1-0.2,1.7l-2.2,12.3h3.7l-0.9,5.4h-13.6l0.8-5.4h3.7l2-11.7
			c0.1-0.3,0.1-0.6,0.1-0.9c0-0.3,0-0.5,0-0.7c0-0.8-0.2-1.5-0.7-1.9c-0.5-0.4-1.2-0.7-2.1-0.7c-1.1,0-2.3,0.3-3.6,1
			c-1.3,0.6-2.6,1.6-3.8,2.8l-2.1,12.2h3.6l-0.9,5.4H162l0.9-5.4h3.6l2.1-11.7c0-0.2,0.1-0.5,0.1-0.7c0-0.2,0-0.5,0-0.9
			c0-0.8-0.2-1.5-0.7-1.9c-0.5-0.4-1.2-0.7-2.1-0.7c-1.1,0-2.2,0.3-3.5,0.9c-1.2,0.6-2.5,1.6-3.9,2.8l-2.2,12.2h3.7l-1,5.4h-13.8
			l1-5.4h3.6l2.8-15.4H149l0.9-5.4H160z"/>
		<path clip-path="url(#SVGID_2_)" fill="#FFFFFF" d="M220.9,14.4h9.9l-1,5.4h-3.5l-2.8,15.4h3.7l-1,5.4h-10.3l0.5-2.1
			c-1.2,0.9-2.5,1.6-3.9,2.1c-1.4,0.5-2.8,0.7-4.2,0.7c-3.5,0-6.3-1.2-8.5-3.5c-2.2-2.3-3.3-5.3-3.3-9c0-4.3,1.4-7.8,4.3-10.8
			c2.9-2.9,6.5-4.4,10.7-4.4c1.8,0,3.5,0.3,5,1c1.5,0.7,2.7,1.6,3.6,2.9L220.9,14.4z M210.2,36.2c2.6,0,4.7-0.9,6.3-2.8
			c1.6-1.9,2.5-4.3,2.5-7.2c0-2.1-0.7-3.9-2-5.3c-1.3-1.4-3.1-2.1-5.2-2.1c-2.5,0-4.5,1-6.2,2.9c-1.7,1.9-2.5,4.3-2.5,7.2
			c0,2.2,0.6,4,1.9,5.3C206.4,35.6,208.1,36.2,210.2,36.2"/>
		<path clip-path="url(#SVGID_2_)" fill="#FFFFFF" d="M237.3,19.9h-4l1-5.4h4l1.2-6.7c0.5-2.7,1.4-4.7,2.8-5.9
			c1.4-1.2,3.3-1.8,5.9-1.8c0.5,0,1.1,0,1.7,0.1c0.6,0,1.3,0.1,2,0.2l-0.9,5c-0.2,0-0.5,0-0.9-0.1c-0.4,0-0.7-0.1-0.8-0.1
			c-1.1,0-1.8,0.3-2.3,0.8c-0.5,0.5-0.9,1.8-1.2,3.7l-0.9,4.9h4l-0.9,5.4h-3.9l-2.8,15.4h4l-0.9,5.4h-14.5l1-5.4h4L237.3,19.9z"/>
		<path clip-path="url(#SVGID_2_)" fill="#FFFFFF" d="M258.7,35.3h3.7l-1,5.4h-13.9l1-5.4h3.6l2.8-15.4h-3.7l0.9-5.4h10.2
			L258.7,35.3z M254.5,10l1.2-6.9h8.3l-1.2,6.9H254.5z"/>
		<path clip-path="url(#SVGID_2_)" fill="#FFFFFF" d="M290.3,14.4h9.9l-1,5.4h-3.5L293,35.3h3.7l-1,5.4h-10.3l0.5-2.1
			c-1.2,0.9-2.5,1.6-3.9,2.1c-1.4,0.5-2.8,0.7-4.2,0.7c-3.5,0-6.3-1.2-8.5-3.5c-2.2-2.3-3.3-5.3-3.3-9c0-4.3,1.4-7.8,4.3-10.8
			c2.9-2.9,6.4-4.4,10.7-4.4c1.8,0,3.5,0.3,5,1c1.5,0.7,2.7,1.6,3.7,2.9L290.3,14.4z M279.6,36.2c2.6,0,4.7-0.9,6.3-2.8
			c1.6-1.9,2.5-4.3,2.5-7.2c0-2.1-0.7-3.9-2-5.3c-1.3-1.4-3.1-2.1-5.2-2.1c-2.5,0-4.5,1-6.2,2.9c-1.7,1.9-2.5,4.3-2.5,7.2
			c0,2.2,0.6,4,1.9,5.3C275.7,35.6,277.4,36.2,279.6,36.2"/>
		<path clip-path="url(#SVGID_2_)" fill="#FFFFFF" d="M93.2,62.8c-0.9,0.4-2.6,0.8-4.5,0.8c-2.2,0-4-0.6-5.2-2
			C82.4,60.3,82,58.6,82,57c0-2.6,1.1-5.4,3.1-7.2c1.7-1.5,4-2.4,6.5-2.4c1.9,0,3.3,0.4,3.7,0.7l-0.6,1.6c-0.8-0.4-1.9-0.7-3.3-0.7
			c-1.9,0-3.6,0.7-4.9,1.9c-1.5,1.4-2.4,3.6-2.4,5.8c0,3.1,1.5,5.1,5.1,5.1c0.9,0,1.8-0.2,2.4-0.4l0.9-4.7h-3.2l0.3-1.6h5.1
			L93.2,62.8z"/>
		<path clip-path="url(#SVGID_2_)" fill="#FFFFFF" d="M95.5,63.4l1.4-7.3c0.3-1.5,0.5-3,0.6-4h1.7c-0.1,0.8-0.2,1.6-0.3,2.5H99
			c0.7-1.5,1.9-2.7,3.5-2.7c0.2,0,0.4,0,0.5,0l-0.4,1.9c-0.1,0-0.3,0-0.5,0c-1.7,0-3.2,2-3.7,4.7l-0.9,5H95.5z"/>
		<path clip-path="url(#SVGID_2_)" fill="#FFFFFF" d="M113.2,56.6c0,3.5-2.5,7.1-6.3,7.1c-2.8,0-4.4-2.1-4.4-4.7
			c0-3.7,2.6-7.2,6.3-7.2C111.8,51.8,113.2,54.1,113.2,56.6 M104.4,59c0,1.9,1,3.2,2.7,3.2c2.3,0,4-3,4-5.6c0-1.3-0.6-3.2-2.7-3.2
			C106.1,53.4,104.4,56.3,104.4,59"/>
		<path clip-path="url(#SVGID_2_)" fill="#FFFFFF" d="M116.5,52.1l0.4,6.4c0.1,1.4,0.1,2.1,0,3.1h0.1c0.3-0.7,0.7-1.7,1.2-2.8
			l3.4-6.6h1.7l0.7,6.5c0.1,1.2,0.2,2.2,0.2,3h0c0.3-0.9,0.6-1.8,1.1-2.9l3.1-6.6h2l-5.6,11.4h-1.8l-0.8-6.2c-0.1-1.1-0.2-2-0.2-3h0
			c-0.5,1.1-0.8,1.9-1.3,3l-3.3,6.2h-1.8l-1.1-11.4H116.5z"/>
		<path clip-path="url(#SVGID_2_)" fill="#FFFFFF" d="M134.9,49l-0.6,3.1h2.7l-0.3,1.5H134l-1.1,5.5c-0.1,0.6-0.2,1.2-0.2,1.8
			c0,0.7,0.3,1.1,1.1,1.1c0.3,0,0.7,0,0.9-0.1l-0.1,1.5c-0.4,0.1-0.9,0.2-1.5,0.2c-1.7,0-2.4-1.1-2.4-2.2c0-0.7,0.1-1.3,0.2-2.1
			l1.1-5.8h-1.6l0.3-1.5h1.6l0.5-2.6L134.9,49z"/>
		<path clip-path="url(#SVGID_2_)" fill="#FFFFFF" d="M136.5,63.4l3.2-16.7h1.9l-1.4,7.3h0c1-1.4,2.3-2.3,4.1-2.3
			c1.3,0,2.8,0.8,2.8,3.1c0,0.6-0.1,1.3-0.2,1.9l-1.3,6.7h-2l1.3-6.6c0.1-0.4,0.1-0.9,0.1-1.6c0-1.1-0.5-1.9-1.8-1.9
			c-1.5,0-3.4,1.8-3.9,4.3l-1.1,5.7H136.5z"/>
		<polygon clip-path="url(#SVGID_2_)" fill="#FFFFFF" points="157.2,47.6 155.9,54.3 163.2,54.3 164.5,47.6 166.5,47.6 163.4,63.4 
			161.5,63.4 162.9,56 155.6,56 154.2,63.4 152.3,63.4 155.3,47.6 		"/>
		<path clip-path="url(#SVGID_2_)" fill="#FFFFFF" d="M173.9,63.4c0-0.7,0.1-1.8,0.3-2.9h0c-1.2,2.4-2.8,3.2-4.4,3.2
			c-2,0-3.3-1.6-3.3-3.8c0-3.9,2.9-8.1,7.9-8.1c1.1,0,2.3,0.2,3.1,0.4l-1.2,5.9c-0.4,2-0.5,4-0.5,5.3H173.9z M175.1,53.5
			c-0.3-0.1-0.7-0.2-1.4-0.2c-2.9,0-5.3,3.1-5.4,6.2c0,1.3,0.4,2.5,2,2.5c1.6,0,3.5-2.1,4.1-5.1L175.1,53.5z"/>
		<path clip-path="url(#SVGID_2_)" fill="#FFFFFF" d="M185.8,63c-0.6,0.3-1.8,0.7-3.3,0.7c-2.9,0-4.4-2-4.4-4.4c0-3.9,2.9-7.4,7-7.4
			c1.1,0,2,0.3,2.4,0.5l-0.6,1.6c-0.4-0.2-1.1-0.4-1.9-0.4c-3,0-4.8,2.9-4.8,5.6c0,1.8,1,3,2.8,3c1.2,0,2-0.4,2.6-0.6L185.8,63z"/>
		<path clip-path="url(#SVGID_2_)" fill="#FFFFFF" d="M187.4,63.4l3.2-16.7h1.9l-2,10.5h0c0.3-0.4,0.8-0.8,1.1-1.2l4-4h2.4l-5,4.7
			l3.4,6.7h-2.2l-2.7-5.6l-1.4,1.3l-0.8,4.3H187.4z"/>
		<path clip-path="url(#SVGID_2_)" fill="#FFFFFF" d="M197.6,63.4l2.2-11.4h2l-2.2,11.4H197.6z M200.2,48.9c0-0.8,0.6-1.3,1.3-1.3
			c0.7,0,1.2,0.5,1.2,1.2c0,0.8-0.6,1.3-1.3,1.3C200.6,50.1,200.2,49.6,200.2,48.9"/>
		<path clip-path="url(#SVGID_2_)" fill="#FFFFFF" d="M202.4,63.4l1.5-8.1c0.3-1.3,0.4-2.4,0.5-3.3h1.7l-0.3,2.2h0
			c1-1.6,2.5-2.5,4.2-2.5c1.4,0,2.9,0.8,2.9,3.2c0,0.5-0.1,1.2-0.2,1.8l-1.3,6.6h-2l1.2-6.6c0.1-0.4,0.2-1,0.2-1.5
			c0-1.1-0.4-2-1.8-2c-1.4,0-3.4,1.7-3.9,4.5l-1,5.5H202.4z"/>
		<path clip-path="url(#SVGID_2_)" fill="#FFFFFF" d="M214.5,66c0.7,0.4,1.8,0.8,3,0.8c1.9,0,3.4-1,4.1-4.1l0.4-1.7h-0.1
			c-1,1.6-2.4,2.4-3.9,2.4c-2.3,0-3.5-1.9-3.5-3.9c0-3.9,2.8-7.7,7.2-7.7c1.3,0,2.7,0.4,3.6,0.8l-1.7,9.4c-0.5,2.4-1.1,4.1-2.3,5.1
			c-1.1,1-2.7,1.3-4,1.3c-1.4,0-2.7-0.3-3.4-0.8L214.5,66z M223.2,53.8c-0.4-0.2-1.1-0.4-1.9-0.4c-2.8,0-4.8,3-4.8,5.8
			c0,1.2,0.5,2.7,2.2,2.7c1.7,0,3.4-2.1,3.8-4.3L223.2,53.8z"/>
		<path clip-path="url(#SVGID_2_)" fill="#FFFFFF" d="M233.1,58.4l-2.5,5h-2.1l8.2-15.8h2.3l2.2,15.8h-2l-0.6-5H233.1z M238.4,56.9
			l-0.6-4.6c-0.1-0.8-0.2-2-0.3-2.9h0c-0.4,0.9-0.8,1.9-1.3,2.9l-2.4,4.6H238.4z"/>
		<path clip-path="url(#SVGID_2_)" fill="#FFFFFF" d="M242.4,66c0.7,0.4,1.8,0.8,3,0.8c1.9,0,3.4-1,4.1-4.1l0.4-1.7h-0.1
			c-1,1.6-2.4,2.4-3.9,2.4c-2.3,0-3.5-1.9-3.5-3.9c0-3.9,2.8-7.7,7.2-7.7c1.3,0,2.7,0.4,3.6,0.8l-1.7,9.4c-0.5,2.4-1.1,4.1-2.3,5.1
			c-1.1,1-2.7,1.3-4,1.3c-1.4,0-2.7-0.3-3.4-0.8L242.4,66z M251.1,53.8c-0.4-0.2-1.1-0.4-1.9-0.4c-2.8,0-4.8,3-4.8,5.8
			c0,1.2,0.4,2.7,2.2,2.7c1.7,0,3.4-2.1,3.8-4.3L251.1,53.8z"/>
		<path clip-path="url(#SVGID_2_)" fill="#FFFFFF" d="M262.2,62.8c-0.8,0.5-2.2,0.9-3.8,0.9c-3,0-4.3-2-4.3-4.6
			c0-3.4,2.5-7.3,6.2-7.3c2.2,0,3.3,1.3,3.3,2.9c0,3-3.4,3.8-7.6,3.7c-0.1,0.5,0,1.6,0.2,2.2c0.4,1,1.4,1.5,2.5,1.5
			c1.3,0,2.3-0.4,3.1-0.8L262.2,62.8z M260,53.3c-1.9,0-3.2,1.8-3.7,3.6c3.1,0,5.4-0.4,5.4-2.1C261.8,53.9,261.1,53.3,260,53.3"/>
		<path clip-path="url(#SVGID_2_)" fill="#FFFFFF" d="M264.1,63.4l1.5-8.1c0.3-1.3,0.4-2.4,0.5-3.3h1.7l-0.3,2.2h0
			c1-1.6,2.5-2.5,4.2-2.5c1.4,0,2.9,0.8,2.9,3.2c0,0.5-0.1,1.2-0.2,1.8l-1.3,6.6h-2l1.2-6.6c0.1-0.4,0.2-1,0.2-1.5
			c0-1.1-0.4-2-1.8-2c-1.4,0-3.4,1.7-3.9,4.5l-1,5.5H264.1z"/>
		<path clip-path="url(#SVGID_2_)" fill="#FFFFFF" d="M283.8,63c-0.6,0.3-1.8,0.7-3.3,0.7c-2.9,0-4.4-2-4.4-4.4c0-3.9,2.9-7.4,7-7.4
			c1.1,0,2,0.3,2.4,0.5l-0.6,1.6c-0.4-0.2-1.1-0.4-1.9-0.4c-3,0-4.8,2.9-4.8,5.6c0,1.8,1,3,2.8,3c1.2,0,2-0.4,2.6-0.6L283.8,63z"/>
		<path clip-path="url(#SVGID_2_)" fill="#FFFFFF" d="M288.1,52.1l1.1,6.1c0.3,1.3,0.4,2.1,0.5,3h0c0.3-0.7,0.6-1.5,1.2-2.8l2.9-6.3
			h2.1l-4.3,8.6c-1.2,2.5-2.4,4.5-3.9,6c-1.3,1.3-2.7,1.8-3.3,2L284,67c0.5-0.2,1.3-0.5,2.1-1.1c0.8-0.6,1.6-1.5,2.2-2.6
			c0.1-0.2,0.1-0.3,0.1-0.5l-2.3-10.7H288.1z"/>
		<polygon clip-path="url(#SVGID_2_)" fill="#FFFFFF" points="311.7,3.6 308.5,3.6 308.5,12.7 307.1,12.7 307.1,3.6 303.9,3.6 
			303.9,2.5 308.5,2.5 311.7,2.5 		"/>
		<polygon clip-path="url(#SVGID_2_)" fill="#FFFFFF" points="323.4,12.7 322.1,12.7 322.1,8.7 322.2,4.4 318.8,12.7 317.8,12.7 
			314.5,4.4 314.6,8.7 314.6,12.7 313.3,12.7 313.3,2.5 314.4,2.5 315,2.5 318.3,10.8 321.7,2.5 323.4,2.5 		"/>
	</g>
</g>
</svg>
