<?xml version="1.0" encoding="utf-8"?>
<!-- Generator: Adobe Illustrator 16.0.0, SVG Export Plug-In . SVG Version: 6.00 Build 0)  -->
<!DOCTYPE svg PUBLIC "-//W3C//DTD SVG 1.1//EN" "http://www.w3.org/Graphics/SVG/1.1/DTD/svg11.dtd" [
	<!ENTITY ns_extend "http://ns.adobe.com/Extensibility/1.0/">
	<!ENTITY ns_ai "http://ns.adobe.com/AdobeIllustrator/10.0/">
	<!ENTITY ns_graphs "http://ns.adobe.com/Graphs/1.0/">
	<!ENTITY ns_vars "http://ns.adobe.com/Variables/1.0/">
	<!ENTITY ns_imrep "http://ns.adobe.com/ImageReplacement/1.0/">
	<!ENTITY ns_sfw "http://ns.adobe.com/SaveForWeb/1.0/">
	<!ENTITY ns_custom "http://ns.adobe.com/GenericCustomNamespace/1.0/">
	<!ENTITY ns_adobe_xpath "http://ns.adobe.com/XPath/1.0/">
]>
<svg version="1.1" id="Layer_1" xmlns:x="&ns_extend;" xmlns:i="&ns_ai;" xmlns:graph="&ns_graphs;"
	 xmlns="http://www.w3.org/2000/svg" xmlns:xlink="http://www.w3.org/1999/xlink" x="0px" y="0px" width="319.228px"
	 height="137.875px" viewBox="0 0 319.228 137.875" enable-background="new 0 0 319.228 137.875" xml:space="preserve">
<metadata>
	<sfw  xmlns="&ns_sfw;">
		<slices></slices>
		<sliceSourceBounds  width="319.228" height="137.875" y="-218.457" x="17.75" bottomLeftOrigin="true"></sliceSourceBounds>
	</sfw>
</metadata>
<g>
	<path fill="#0071BB" d="M296.641,82.291h19.2l-81.88-82.257l-31.084,31.084L171.825,0.034l-34.343,34.439v-0.138H94.57L129.114,0
		h-19.28l-0.02,0.006L27.229,82.291H46.5l32.412-32.345l1.996-1.991h43.128l-1.987,1.991L89.808,82.291h19.236l62.782-62.986
		l21.416,21.415l-41.538,41.571h102.345l-41.537-41.571l21.449-21.415L296.641,82.291z M209.271,72.903H172.67l18.284-18.316
		L209.271,72.903z"/>
	<polygon fill="#0071BB" points="5.257,137.875 0,137.875 0,101.393 5.257,101.393 5.257,115.29 8.639,115.29 8.639,101.393 
		13.896,101.393 13.896,137.875 8.639,137.875 8.639,120.549 5.257,120.549 	"/>
	<path fill="#0071BB" d="M31.363,137.828c-0.97,0-1.877-0.178-2.724-0.539c-0.844-0.359-1.581-0.861-2.207-1.502
		c-0.625-0.641-1.12-1.386-1.479-2.231c-0.359-0.843-0.539-1.736-0.539-2.676v-22.584c0-0.938,0.18-1.831,0.539-2.676
		s0.854-1.58,1.479-2.208c0.626-0.625,1.363-1.118,2.207-1.479c0.847-0.358,1.754-0.541,2.724-0.541s1.876,0.182,2.724,0.541
		c0.844,0.361,1.579,0.854,2.207,1.479c0.625,0.627,1.118,1.362,1.48,2.208c0.358,0.845,0.538,1.739,0.538,2.676v22.584
		c0,0.94-0.179,1.833-0.538,2.676c-0.362,0.846-0.854,1.591-1.48,2.231c-0.628,0.641-1.362,1.143-2.207,1.502
		C33.24,137.649,32.333,137.828,31.363,137.828 M29.673,130.878c0,0.472,0.165,0.87,0.492,1.198c0.331,0.33,0.728,0.493,1.199,0.493
		c0.47,0,0.868-0.163,1.198-0.493c0.328-0.328,0.493-0.727,0.493-1.198v-22.584c0-0.469-0.165-0.868-0.493-1.197
		c-0.33-0.328-0.728-0.493-1.198-0.493c-0.471,0-0.868,0.165-1.199,0.493c-0.327,0.329-0.492,0.728-0.492,1.197V130.878z"/>
	<path fill="#0071BB" d="M62.726,113.554c0,1.627-0.499,3.068-1.5,4.319c1.001,1.126,1.5,2.582,1.5,4.367v15.588h-5.258V122.24
		c0-0.47-0.165-0.868-0.493-1.197c-0.329-0.328-0.744-0.51-1.244-0.541h-1.645v17.327H48.83v-36.436h6.995
		c0.938,0,1.83,0.187,2.677,0.564c0.844,0.376,1.579,0.885,2.207,1.525c0.625,0.643,1.118,1.378,1.479,2.206
		c0.359,0.831,0.538,1.715,0.538,2.655V113.554z M57.468,108.343c0-0.439-0.165-0.83-0.493-1.174
		c-0.329-0.346-0.727-0.533-1.197-0.564h-1.691v8.686h1.691c0.531-0.03,0.946-0.218,1.244-0.562
		c0.296-0.344,0.446-0.735,0.446-1.174V108.343z"/>
	<rect x="73.104" y="101.393" fill="#0071BB" width="5.304" height="36.436"/>
	<polygon fill="#0071BB" points="102.45,137.829 88.551,137.829 88.551,133.368 96.956,106.604 88.551,106.604 88.551,101.393 
		102.45,101.393 102.45,105.854 94.139,132.617 102.45,132.617 	"/>
	<path fill="#0071BB" d="M119.915,137.828c-0.97,0-1.877-0.178-2.722-0.539c-0.846-0.359-1.582-0.861-2.207-1.502
		c-0.628-0.641-1.12-1.386-1.479-2.231c-0.361-0.843-0.541-1.736-0.541-2.676v-22.584c0-0.938,0.18-1.831,0.541-2.676
		c0.359-0.845,0.852-1.58,1.479-2.208c0.625-0.625,1.361-1.118,2.207-1.479c0.844-0.358,1.751-0.541,2.722-0.541
		c0.97,0,1.879,0.182,2.723,0.541c0.847,0.361,1.581,0.854,2.208,1.479c0.625,0.627,1.12,1.362,1.479,2.208
		c0.358,0.845,0.54,1.739,0.54,2.676v22.584c0,0.94-0.182,1.833-0.54,2.676c-0.36,0.846-0.854,1.591-1.479,2.231
		c-0.626,0.641-1.361,1.143-2.208,1.502C121.793,137.649,120.884,137.828,119.915,137.828 M118.224,130.878
		c0,0.472,0.165,0.87,0.495,1.198c0.327,0.33,0.728,0.493,1.196,0.493c0.47,0,0.871-0.163,1.198-0.493
		c0.33-0.328,0.493-0.727,0.493-1.198v-22.584c0-0.469-0.163-0.868-0.493-1.197c-0.327-0.328-0.728-0.493-1.198-0.493
		c-0.468,0-0.869,0.165-1.196,0.493c-0.33,0.329-0.495,0.728-0.495,1.197V130.878z"/>
	<polygon fill="#0071BB" points="142.593,137.829 137.38,137.829 137.38,101.393 143.861,101.393 146.02,112.24 146.02,101.393 
		151.231,101.393 151.231,137.829 145.787,137.829 142.593,121.771 	"/>
	<polygon fill="#0071BB" points="182.126,137.829 176.867,137.829 176.867,101.393 183.394,101.393 187.808,123.649 
		192.267,101.393 198.792,101.393 198.792,137.829 193.535,137.829 193.535,121.911 190.295,137.829 185.319,137.829 
		182.126,121.771 	"/>
	<path fill="#0071BB" d="M216.542,137.828c-0.972,0-1.879-0.178-2.722-0.539c-0.846-0.359-1.581-0.861-2.207-1.502
		c-0.628-0.641-1.12-1.386-1.479-2.231c-0.361-0.843-0.542-1.736-0.542-2.676v-22.584c0-0.938,0.181-1.831,0.542-2.676
		c0.359-0.845,0.852-1.58,1.479-2.208c0.626-0.625,1.361-1.118,2.207-1.479c0.843-0.358,1.75-0.541,2.722-0.541
		c0.97,0,1.88,0.182,2.723,0.541c0.848,0.361,1.582,0.854,2.208,1.479c0.625,0.627,1.121,1.362,1.479,2.208
		c0.359,0.845,0.541,1.739,0.541,2.676v22.584c0,0.94-0.182,1.833-0.541,2.676c-0.357,0.846-0.854,1.591-1.479,2.231
		c-0.626,0.641-1.36,1.143-2.208,1.502C218.422,137.649,217.512,137.828,216.542,137.828 M214.851,130.878
		c0,0.472,0.165,0.87,0.495,1.198c0.327,0.33,0.728,0.493,1.196,0.493c0.471,0,0.87-0.163,1.197-0.493
		c0.33-0.328,0.493-0.727,0.493-1.198v-22.584c0-0.469-0.163-0.868-0.493-1.197c-0.327-0.328-0.727-0.493-1.197-0.493
		c-0.469,0-0.869,0.165-1.196,0.493c-0.33,0.329-0.495,0.728-0.495,1.197V130.878z"/>
	<polygon fill="#0071BB" points="237.388,106.604 233.069,106.604 233.069,101.392 246.968,101.392 246.968,106.604 
		242.601,106.604 242.601,137.829 237.388,137.829 	"/>
	<path fill="#0071BB" d="M263.493,137.828c-0.969,0-1.876-0.178-2.72-0.539c-0.847-0.359-1.581-0.861-2.208-1.502
		c-0.627-0.641-1.12-1.386-1.479-2.231c-0.361-0.843-0.541-1.736-0.541-2.676v-22.584c0-0.938,0.18-1.831,0.541-2.676
		c0.358-0.845,0.852-1.58,1.479-2.208c0.627-0.625,1.361-1.118,2.208-1.479c0.844-0.358,1.751-0.541,2.72-0.541
		c0.973,0,1.882,0.182,2.726,0.541c0.845,0.361,1.581,0.854,2.206,1.479c0.626,0.627,1.121,1.362,1.479,2.208
		s0.541,1.739,0.541,2.676v22.584c0,0.94-0.183,1.833-0.541,2.676c-0.358,0.846-0.854,1.591-1.479,2.231
		c-0.625,0.641-1.361,1.143-2.206,1.502C265.375,137.649,264.466,137.828,263.493,137.828 M261.804,130.878
		c0,0.472,0.165,0.87,0.495,1.198c0.327,0.33,0.727,0.493,1.194,0.493c0.473,0,0.872-0.163,1.199-0.493
		c0.329-0.328,0.493-0.727,0.493-1.198v-22.584c0-0.469-0.164-0.868-0.493-1.197c-0.327-0.328-0.727-0.493-1.199-0.493
		c-0.468,0-0.867,0.165-1.194,0.493c-0.33,0.329-0.495,0.728-0.495,1.197V130.878z"/>
	<path fill="#0071BB" d="M294.86,113.554c0,1.627-0.501,3.068-1.504,4.319c1.003,1.126,1.504,2.582,1.504,4.367v15.588H289.6V122.24
		c0-0.47-0.162-0.868-0.491-1.197c-0.328-0.328-0.746-0.51-1.245-0.541h-1.644v17.327h-5.259v-36.436h6.996
		c0.94,0,1.832,0.187,2.676,0.564c0.848,0.376,1.58,0.885,2.208,1.525c0.624,0.643,1.12,1.378,1.478,2.206
		c0.36,0.831,0.542,1.715,0.542,2.655V113.554z M289.6,108.343c0-0.439-0.162-0.83-0.491-1.174
		c-0.328-0.346-0.729-0.533-1.199-0.564h-1.689v8.686h1.689c0.533-0.03,0.948-0.218,1.245-0.562
		c0.297-0.344,0.445-0.735,0.445-1.174V108.343z"/>
	<path fill="#0071BB" d="M313.969,122.333c0-0.53-0.172-0.968-0.517-1.314c-0.345-0.344-0.767-0.517-1.269-0.517
		c-0.97,0-1.869-0.18-2.699-0.54c-0.83-0.358-1.55-0.86-2.159-1.502c-0.609-0.641-1.095-1.384-1.457-2.23
		c-0.358-0.845-0.538-1.738-0.538-2.676v-5.212c0-0.939,0.18-1.831,0.538-2.676c0.362-0.844,0.854-1.588,1.479-2.23
		c0.627-0.642,1.364-1.143,2.207-1.503c0.847-0.358,1.754-0.54,2.723-0.54c0.972,0,1.879,0.181,2.725,0.54
		c0.845,0.361,1.582,0.862,2.206,1.503c0.626,0.642,1.119,1.386,1.48,2.23c0.359,0.845,0.539,1.737,0.539,2.676v5.258h-5.259v-5.258
		c0-0.469-0.164-0.877-0.492-1.221c-0.33-0.344-0.744-0.516-1.244-0.516c-0.502,0-0.908,0.173-1.223,0.52
		c-0.312,0.345-0.468,0.754-0.468,1.227v5.286c0,0.503,0.172,0.936,0.516,1.299c0.347,0.362,0.768,0.542,1.268,0.542
		c0.969,0,1.879,0.181,2.724,0.54c0.847,0.359,1.58,0.85,2.206,1.475c0.626,0.626,1.11,1.359,1.456,2.203
		c0.343,0.844,0.517,1.749,0.517,2.716v8.482c0,0.937-0.18,1.828-0.539,2.671c-0.361,0.843-0.854,1.585-1.48,2.225
		c-0.624,0.639-1.361,1.139-2.206,1.499c-0.846,0.36-1.753,0.538-2.725,0.538c-0.969,0-1.876-0.178-2.723-0.538
		c-0.843-0.36-1.58-0.862-2.207-1.503c-0.625-0.641-1.117-1.386-1.479-2.231c-0.358-0.844-0.538-1.736-0.538-2.676v-5.258h5.212
		v5.258c0,0.471,0.172,0.876,0.516,1.222c0.347,0.345,0.749,0.516,1.22,0.516c0.473,0,0.869-0.171,1.199-0.516
		c0.328-0.346,0.492-0.751,0.492-1.222V122.333z"/>
</g>
</svg>
